<svg width="50" height="50" viewBox="0 0 50 50" fill="none" xmlns="http://www.w3.org/2000/svg">
<rect width="50" height="50" fill="#1D1D1D"/>
<path d="M6 44.087C7.34836 41.5769 8.72226 39.0831 10.0103 36.5412C12.6854 31.2623 15.8218 26.2707 19.1497 21.381C21.6519 17.7046 24.1146 13.9721 26.8855 10.4898C28.1069 8.95474 29.5853 6.67799 31.5818 6.04143C32.4301 5.77095 33.2146 6.89124 33.5659 7.47671C34.3636 8.80632 34.7271 10.3561 35.0434 11.8564C35.6058 14.5247 35.9277 17.22 35.9932 19.9457C36.1024 24.4919 36.0143 29.0492 36.0143 33.5967C36.0143 35.1548 35.9982 36.714 36.0196 38.272C36.0265 38.7759 36.0055 39.254 36.2042 39.7178" stroke="white" stroke-width="7" stroke-linecap="round" stroke-linejoin="round"/>
<path d="M8.84937 29.8397C9.22903 29.7932 9.49671 29.6736 9.84668 29.5073C10.7477 29.0791 11.6576 28.6938 12.5959 28.3516C16.5012 26.9273 20.5492 25.9456 24.648 25.27C29.443 24.4797 34.2837 23.9141 39.0958 23.2332C40.4623 23.0398 41.8483 22.811 43.2328 22.811" stroke="white" stroke-width="7" stroke-linecap="round" stroke-linejoin="round"/>
</svg>
